<?xml version="1.0" encoding="UTF-8" standalone="no"?>
<svg
   xmlns:dc="http://purl.org/dc/elements/1.1/"
   xmlns:cc="http://creativecommons.org/ns#"
   xmlns:rdf="http://www.w3.org/1999/02/22-rdf-syntax-ns#"
   xmlns:svg="http://www.w3.org/2000/svg"
   xmlns="http://www.w3.org/2000/svg"
   xmlns:sodipodi="http://sodipodi.sourceforge.net/DTD/sodipodi-0.dtd"
   xmlns:inkscape="http://www.inkscape.org/namespaces/inkscape"
   height="512pt"
   viewBox="-33 0 512 512.002"
   width="512pt"
   version="1.1"
   id="svg6"
   sodipodi:docname="product.svg"
   inkscape:version="0.92.4 (5da689c313, 2019-01-14)">
  <metadata
     id="metadata12">
    <rdf:RDF>
      <cc:Work
         rdf:about="">
        <dc:format>image/svg+xml</dc:format>
        <dc:type
           rdf:resource="http://purl.org/dc/dcmitype/StillImage" />
      </cc:Work>
    </rdf:RDF>
  </metadata>
  <defs
     id="defs10" />
  <sodipodi:namedview
     pagecolor="#ffffff"
     bordercolor="#666666"
     borderopacity="1"
     objecttolerance="10"
     gridtolerance="10"
     guidetolerance="10"
     inkscape:pageopacity="0"
     inkscape:pageshadow="2"
     inkscape:window-width="1366"
     inkscape:window-height="705"
     id="namedview8"
     showgrid="false"
     inkscape:zoom="0.34570313"
     inkscape:cx="341.33333"
     inkscape:cy="341.33333"
     inkscape:window-x="-8"
     inkscape:window-y="-8"
     inkscape:window-maximized="1"
     inkscape:current-layer="svg6" />
  <path
     d="M 63.502734,485.7805 H 370.31041 c 14.13526,0 25.5673,-11.43871 25.5673,-25.5673 V 151.70103 c 0,-14.12861 -11.43204,-25.5673 -25.5673,-25.5673 h -76.70192 v -25.56731 c 0,-42.292585 -34.40933,-76.701917 -76.70191,-76.701917 -42.29259,0 -76.70192,34.409332 -76.70192,76.701917 v 25.56731 H 63.502734 c -14.128593,0 -25.567301,11.43869 -25.567301,25.5673 V 460.2132 c 0,14.12859 11.438708,25.5673 25.567301,25.5673 z M 191.33926,100.56642 c 0,-14.108636 11.48532,-25.567306 25.56732,-25.567306 14.08199,0 25.5673,11.45867 25.5673,25.567306 v 25.56731 h -51.13462 z m 0,0"
     id="path2"
     inkscape:connector-curvature="0"
     style="stroke-width:1.70448709" />
</svg>
